<svg width="197" height="48" viewBox="0 0 197 48" fill="none" xmlns="http://www.w3.org/2000/svg">
<path d="M20.7844 47.4428V7.22949L0 26.6584L20.7844 47.4428Z" fill="#F14074"/>
<path d="M20.7852 47.4429L41.1177 28.4659L42.0214 27.1104H20.7852V47.4429Z" fill="#C12559"/>
<path d="M28.0071 21V5.81835H31.5206V21H28.0071ZM41.977 9.15831C42.9023 9.15831 43.7265 9.34628 44.4494 9.7222C45.1868 10.0837 45.7652 10.6476 46.1845 11.4139C46.6038 12.1657 46.8134 13.1345 46.8134 14.3201V21H43.4301V14.8406C43.4301 13.9008 43.2204 13.2068 42.8011 12.7585C42.3963 12.3103 41.8179 12.0862 41.0661 12.0862C40.5311 12.0862 40.0467 12.2019 39.613 12.4332C39.1937 12.6501 38.8611 12.9899 38.6153 13.4526C38.384 13.9152 38.2683 14.508 38.2683 15.231V21H34.885V9.33182H38.1165V12.5633L37.5092 11.5874C37.9285 10.8066 38.5286 10.2066 39.3093 9.78727C40.0901 9.36796 40.9793 9.15831 41.977 9.15831ZM50.2923 21V9.07156C50.2923 7.75582 50.6827 6.70756 51.4635 5.92679C52.2442 5.13156 53.3576 4.73394 54.8034 4.73394C55.295 4.73394 55.7649 4.78455 56.2132 4.88576C56.6758 4.98697 57.0662 5.14602 57.3843 5.3629L56.4951 7.81365C56.3071 7.68352 56.0975 7.58231 55.8661 7.51002C55.6348 7.43772 55.389 7.40158 55.1288 7.40158C54.6372 7.40158 54.254 7.54617 53.9793 7.83534C53.719 8.11006 53.5889 8.52936 53.5889 9.09325V10.1777L53.6757 11.6308V21H50.2923ZM48.4922 12.1946V9.59207H56.5819V12.1946H48.4922ZM58.4904 21V4.90745H61.8737V21H58.4904ZM69.9258 21.1735C68.957 21.1735 68.0895 20.9855 67.3232 20.6096C66.5714 20.2337 65.9858 19.6626 65.5665 18.8963C65.1472 18.1155 64.9375 17.1251 64.9375 15.925V9.33182H68.3209V15.4262C68.3209 16.3949 68.5233 17.1106 68.9281 17.5733C69.3474 18.0215 69.933 18.2456 70.6849 18.2456C71.2054 18.2456 71.6681 18.1372 72.0729 17.9203C72.4777 17.689 72.7958 17.3419 73.0272 16.8793C73.2585 16.4021 73.3742 15.8093 73.3742 15.1008V9.33182H76.7575V21H73.5477V17.7902L74.1333 18.7228C73.7429 19.5324 73.1645 20.1469 72.3982 20.5662C71.6464 20.9711 70.8222 21.1735 69.9258 21.1735ZM85.6827 21.1735C84.3525 21.1735 83.1813 20.9132 82.1692 20.3927C81.1716 19.8722 80.398 19.1637 79.8486 18.2673C79.2991 17.3564 79.0244 16.3226 79.0244 15.1659C79.0244 13.9948 79.2919 12.961 79.8269 12.0645C80.3763 11.1536 81.1209 10.4451 82.0608 9.93908C83.0006 9.41857 84.0633 9.15831 85.2489 9.15831C86.3911 9.15831 87.4177 9.40411 88.3286 9.89571C89.254 10.3728 89.9841 11.0669 90.5191 11.9778C91.0541 12.8742 91.3216 13.9514 91.3216 15.2093C91.3216 15.3394 91.3143 15.4912 91.2999 15.6647C91.2854 15.8238 91.271 15.9756 91.2565 16.1202H81.7788V14.1466H89.4781L88.1768 14.7321C88.1768 14.1249 88.0539 13.5971 87.8081 13.1489C87.5623 12.7007 87.2225 12.3537 86.7888 12.1079C86.355 11.8476 85.8489 11.7175 85.2706 11.7175C84.6922 11.7175 84.179 11.8476 83.7307 12.1079C83.297 12.3537 82.9572 12.7079 82.7114 13.1706C82.4656 13.6188 82.3427 14.1538 82.3427 14.7755V15.296C82.3427 15.9322 82.4801 16.4961 82.7548 16.9877C83.044 17.4648 83.4416 17.8335 83.9476 18.0938C84.4681 18.3396 85.0754 18.4625 85.7694 18.4625C86.3911 18.4625 86.9333 18.3685 87.396 18.1806C87.8732 17.9926 88.3069 17.7106 88.6973 17.3347L90.4974 19.2866C89.9625 19.8939 89.2901 20.3638 88.4804 20.6964C87.6707 21.0145 86.7382 21.1735 85.6827 21.1735ZM100.666 9.15831C101.591 9.15831 102.416 9.34628 103.139 9.7222C103.876 10.0837 104.454 10.6476 104.874 11.4139C105.293 12.1657 105.503 13.1345 105.503 14.3201V21H102.119V14.8406C102.119 13.9008 101.91 13.2068 101.49 12.7585C101.085 12.3103 100.507 12.0862 99.7552 12.0862C99.2202 12.0862 98.7358 12.2019 98.3021 12.4332C97.8828 12.6501 97.5502 12.9899 97.3044 13.4526C97.0731 13.9152 96.9574 14.508 96.9574 15.231V21H93.5741V9.33182H96.8056V12.5633L96.1983 11.5874C96.6176 10.8066 97.2177 10.2066 97.9985 9.78727C98.7792 9.36796 99.6684 9.15831 100.666 9.15831ZM114.293 21.1735C113.035 21.1735 111.915 20.9205 110.931 20.4144C109.948 19.8939 109.175 19.1782 108.611 18.2673C108.061 17.3564 107.787 16.3226 107.787 15.1659C107.787 13.9948 108.061 12.961 108.611 12.0645C109.175 11.1536 109.948 10.4451 110.931 9.93908C111.915 9.41857 113.035 9.15831 114.293 9.15831C115.522 9.15831 116.592 9.41857 117.503 9.93908C118.414 10.4451 119.086 11.1753 119.52 12.1296L116.896 13.5393C116.592 12.9899 116.209 12.585 115.746 12.3248C115.298 12.0645 114.806 11.9344 114.271 11.9344C113.693 11.9344 113.172 12.0645 112.71 12.3248C112.247 12.585 111.878 12.9537 111.604 13.4309C111.343 13.908 111.213 14.4863 111.213 15.1659C111.213 15.8455 111.343 16.4238 111.604 16.901C111.878 17.3781 112.247 17.7468 112.71 18.007C113.172 18.2673 113.693 18.3974 114.271 18.3974C114.806 18.3974 115.298 18.2745 115.746 18.0287C116.209 17.7685 116.592 17.3564 116.896 16.7925L119.52 18.2239C119.086 19.1637 118.414 19.8939 117.503 20.4144C116.592 20.9205 115.522 21.1735 114.293 21.1735ZM127.11 21.1735C125.78 21.1735 124.609 20.9132 123.597 20.3927C122.599 19.8722 121.826 19.1637 121.276 18.2673C120.727 17.3564 120.452 16.3226 120.452 15.1659C120.452 13.9948 120.72 12.961 121.255 12.0645C121.804 11.1536 122.549 10.4451 123.488 9.93908C124.428 9.41857 125.491 9.15831 126.677 9.15831C127.819 9.15831 128.845 9.40411 129.756 9.89571C130.682 10.3728 131.412 11.0669 131.947 11.9778C132.482 12.8742 132.749 13.9514 132.749 15.2093C132.749 15.3394 132.742 15.4912 132.727 15.6647C132.713 15.8238 132.699 15.9756 132.684 16.1202H123.206V14.1466H130.906L129.604 14.7321C129.604 14.1249 129.482 13.5971 129.236 13.1489C128.99 12.7007 128.65 12.3537 128.216 12.1079C127.783 11.8476 127.277 11.7175 126.698 11.7175C126.12 11.7175 125.607 11.8476 125.158 12.1079C124.725 12.3537 124.385 12.7079 124.139 13.1706C123.893 13.6188 123.77 14.1538 123.77 14.7755V15.296C123.77 15.9322 123.908 16.4961 124.182 16.9877C124.472 17.4648 124.869 17.8335 125.375 18.0938C125.896 18.3396 126.503 18.4625 127.197 18.4625C127.819 18.4625 128.361 18.3685 128.824 18.1806C129.301 17.9926 129.735 17.7106 130.125 17.3347L131.925 19.2866C131.39 19.8939 130.718 20.3638 129.908 20.6964C129.098 21.0145 128.166 21.1735 127.11 21.1735ZM135.002 21V9.33182H138.233V12.6284L137.778 11.6741C138.125 10.85 138.681 10.2283 139.448 9.80895C140.214 9.37519 141.147 9.15831 142.246 9.15831V12.2814C142.101 12.2669 141.971 12.2597 141.855 12.2597C141.739 12.2452 141.617 12.238 141.486 12.238C140.561 12.238 139.809 12.5055 139.231 13.0405C138.667 13.561 138.385 14.3779 138.385 15.4912V21H135.002Z" fill="white"/>
<path d="M44.655 41.6885V27.1394H46.3593L52.8856 38.1343H51.9711L58.4143 27.1394H60.1186L60.1394 41.6885H58.1441L58.1233 30.2778H58.6014L52.8649 39.9218H51.9088L46.1307 30.2778H46.6503V41.6885H44.655ZM71.0528 41.6885V39.3606L70.9489 38.9242V34.9543C70.9489 34.1091 70.6995 33.4579 70.2007 33.0006C69.7157 32.5295 68.9813 32.2939 67.9975 32.2939C67.3463 32.2939 66.7089 32.4048 66.0854 32.6265C65.4618 32.8343 64.9353 33.1184 64.5057 33.4786L63.6744 31.9822C64.2425 31.5249 64.9214 31.1785 65.7112 30.9429C66.5149 30.6935 67.3532 30.5688 68.2262 30.5688C69.7365 30.5688 70.9004 30.936 71.7179 31.6704C72.5355 32.4048 72.9442 33.5271 72.9442 35.0375V41.6885H71.0528ZM67.4363 41.8132C66.6188 41.8132 65.8983 41.6746 65.2748 41.3975C64.6651 41.1204 64.194 40.7393 63.8614 40.2544C63.5289 39.7555 63.3626 39.1943 63.3626 38.5708C63.3626 37.975 63.5012 37.4346 63.7783 36.9496C64.0693 36.4647 64.5335 36.0767 65.1708 35.7857C65.8221 35.4947 66.695 35.3492 67.7897 35.3492H71.2815V36.7834H67.8728C66.8752 36.7834 66.2031 36.9496 65.8567 37.2822C65.5103 37.6147 65.3371 38.0166 65.3371 38.4877C65.3371 39.0281 65.5519 39.4645 65.9814 39.7971C66.411 40.1158 67.0068 40.2751 67.7689 40.2751C68.5171 40.2751 69.1684 40.1089 69.7226 39.7763C70.2907 39.4438 70.6995 38.9588 70.9489 38.3214L71.3438 39.6932C71.0805 40.3444 70.6164 40.864 69.9513 41.252C69.2862 41.6261 68.4479 41.8132 67.4363 41.8132ZM76.6367 41.6885V30.6727H78.5489V33.6657L78.3618 32.9175C78.6666 32.1554 79.1793 31.5734 79.8998 31.1716C80.6204 30.7697 81.5072 30.5688 82.5603 30.5688V32.5018C82.4771 32.4879 82.394 32.481 82.3108 32.481C82.2416 32.481 82.1723 32.481 82.103 32.481C81.0361 32.481 80.1908 32.7997 79.5673 33.4371C78.9438 34.0745 78.632 34.9959 78.632 36.2014V41.6885H76.6367ZM86.6407 39.0281L86.6822 36.4716L93.0215 30.6727H95.4325L90.5689 35.4532L89.4881 36.3677L86.6407 39.0281ZM85.0195 41.6885V26.2664H87.0148V41.6885H85.0195ZM93.4372 41.6885L89.114 36.3261L90.4026 34.7257L95.8897 41.6885H93.4372ZM102.286 41.8132C101.108 41.8132 100.069 41.5707 99.168 41.0857C98.2812 40.6008 97.5883 39.9357 97.0895 39.0904C96.6046 38.2452 96.3621 37.2753 96.3621 36.1806C96.3621 35.086 96.5976 34.116 97.0687 33.2708C97.5537 32.4256 98.2119 31.7674 99.0433 31.2963C99.8885 30.8113 100.838 30.5688 101.891 30.5688C102.958 30.5688 103.9 30.8044 104.717 31.2755C105.535 31.7466 106.172 32.4117 106.63 33.2708C107.101 34.116 107.336 35.1067 107.336 36.243C107.336 36.3261 107.329 36.4231 107.315 36.5339C107.315 36.6448 107.309 36.7487 107.295 36.8457H97.9209V35.4116H106.255L105.445 35.9104C105.459 35.2037 105.313 34.5733 105.008 34.019C104.704 33.4648 104.281 33.0352 103.741 32.7304C103.214 32.4117 102.597 32.2524 101.891 32.2524C101.198 32.2524 100.581 32.4117 100.041 32.7304C99.5005 33.0352 99.0779 33.4717 98.7731 34.0398C98.4682 34.5941 98.3158 35.2315 98.3158 35.952V36.2845C98.3158 37.0189 98.4821 37.6771 98.8146 38.259C99.161 38.8272 99.6391 39.2706 100.249 39.5893C100.858 39.9079 101.558 40.0673 102.348 40.0673C102.999 40.0673 103.588 39.9564 104.115 39.7347C104.655 39.513 105.126 39.1805 105.528 38.7371L106.63 40.0257C106.131 40.6077 105.507 41.0511 104.759 41.3559C104.025 41.6608 103.2 41.8132 102.286 41.8132ZM113.89 41.8132C112.781 41.8132 111.922 41.5153 111.312 40.9195C110.703 40.3236 110.398 39.4715 110.398 38.363V28.2618H112.393V38.2798C112.393 38.8757 112.539 39.3329 112.83 39.6516C113.134 39.9703 113.564 40.1296 114.118 40.1296C114.742 40.1296 115.261 39.9564 115.677 39.61L116.301 41.0442C115.996 41.3074 115.629 41.5014 115.199 41.6261C114.783 41.7508 114.347 41.8132 113.89 41.8132ZM108.527 32.3147V30.6727H115.552V32.3147H108.527ZM118.713 41.6885V30.6727H120.708V41.6885H118.713ZM119.711 28.5527C119.323 28.5527 118.997 28.428 118.734 28.1786C118.484 27.9292 118.36 27.6244 118.36 27.2641C118.36 26.89 118.484 26.5782 118.734 26.3288C118.997 26.0794 119.323 25.9547 119.711 25.9547C120.099 25.9547 120.417 26.0794 120.667 26.3288C120.93 26.5644 121.062 26.8623 121.062 27.2225C121.062 27.5967 120.937 27.9153 120.687 28.1786C120.438 28.428 120.112 28.5527 119.711 28.5527ZM130.4 30.5688C131.301 30.5688 132.09 30.742 132.769 31.0884C133.462 31.4348 134.003 31.9614 134.391 32.668C134.779 33.3747 134.973 34.2684 134.973 35.3492V41.6885H132.977V35.5779C132.977 34.5109 132.714 33.7073 132.187 33.1669C131.675 32.6265 130.947 32.3563 130.005 32.3563C129.298 32.3563 128.682 32.4948 128.155 32.772C127.629 33.0491 127.22 33.4579 126.929 33.9982C126.652 34.5386 126.513 35.2107 126.513 36.0143V41.6885H124.518V30.6727H126.43V33.6449L126.118 32.8551C126.479 32.1346 127.033 31.5734 127.781 31.1716C128.529 30.7697 129.402 30.5688 130.4 30.5688ZM143.487 45.8454C142.476 45.8454 141.492 45.6999 140.536 45.4089C139.594 45.1318 138.824 44.7299 138.229 44.2034L139.185 42.6653C139.697 43.1087 140.328 43.4552 141.076 43.7046C141.824 43.9678 142.607 44.0995 143.425 44.0995C144.727 44.0995 145.683 43.7946 146.293 43.185C146.903 42.5753 147.208 41.6469 147.208 40.3998V38.072L147.415 35.8896L147.311 33.6865V30.6727H149.203V40.192C149.203 42.1319 148.718 43.5591 147.748 44.4736C146.778 45.3881 145.358 45.8454 143.487 45.8454ZM143.238 41.2312C142.171 41.2312 141.215 41.0095 140.369 40.5661C139.538 40.1089 138.873 39.4784 138.374 38.6747C137.889 37.8711 137.647 36.9427 137.647 35.8896C137.647 34.8227 137.889 33.8943 138.374 33.1045C138.873 32.3009 139.538 31.6773 140.369 31.2339C141.215 30.7905 142.171 30.5688 143.238 30.5688C144.18 30.5688 145.039 30.7628 145.815 31.1508C146.591 31.5249 147.208 32.1069 147.665 32.8967C148.136 33.6865 148.371 34.6841 148.371 35.8896C148.371 37.0813 148.136 38.072 147.665 38.8618C147.208 39.6516 146.591 40.2474 145.815 40.6493C145.039 41.0372 144.18 41.2312 143.238 41.2312ZM143.466 39.4853C144.201 39.4853 144.852 39.3329 145.42 39.0281C145.988 38.7232 146.432 38.3006 146.75 37.7602C147.083 37.2198 147.249 36.5963 147.249 35.8896C147.249 35.183 147.083 34.5594 146.75 34.019C146.432 33.4786 145.988 33.0629 145.42 32.772C144.852 32.4671 144.201 32.3147 143.466 32.3147C142.732 32.3147 142.074 32.4671 141.492 32.772C140.924 33.0629 140.473 33.4786 140.141 34.019C139.822 34.5594 139.663 35.183 139.663 35.8896C139.663 36.5963 139.822 37.2198 140.141 37.7602C140.473 38.3006 140.924 38.7232 141.492 39.0281C142.074 39.3329 142.732 39.4853 143.466 39.4853ZM163.74 27.1394H165.819V41.6885H163.74V27.1394ZM155.385 41.6885H153.306V27.1394H155.385V41.6885ZM163.927 35.2037H155.177V33.3955H163.927V35.2037ZM174.517 41.8132C173.575 41.8132 172.744 41.64 172.023 41.2936C171.316 40.9472 170.762 40.4206 170.36 39.714C169.972 38.9934 169.778 38.0928 169.778 37.012V30.6727H171.774V36.7834C171.774 37.8641 172.03 38.6747 172.543 39.2151C173.069 39.7555 173.804 40.0257 174.746 40.0257C175.439 40.0257 176.041 39.8872 176.554 39.61C177.067 39.3191 177.462 38.9034 177.739 38.363C178.016 37.8087 178.155 37.1436 178.155 36.3677V30.6727H180.15V41.6885H178.258V38.7163L178.57 39.5061C178.21 40.2405 177.67 40.8086 176.949 41.2104C176.229 41.6123 175.418 41.8132 174.517 41.8132ZM189.789 41.8132C188.847 41.8132 187.994 41.6053 187.232 41.1897C186.484 40.7601 185.888 40.1296 185.445 39.2983C185.015 38.4669 184.801 37.4277 184.801 36.1806C184.801 34.9335 185.022 33.8943 185.466 33.0629C185.923 32.2316 186.526 31.608 187.274 31.1924C188.036 30.7767 188.874 30.5688 189.789 30.5688C190.87 30.5688 191.826 30.8044 192.657 31.2755C193.488 31.7466 194.147 32.4048 194.632 33.25C195.117 34.0814 195.359 35.0583 195.359 36.1806C195.359 37.303 195.117 38.2868 194.632 39.132C194.147 39.9772 193.488 40.6354 192.657 41.1065C191.826 41.5776 190.87 41.8132 189.789 41.8132ZM183.948 41.6885V26.2664H185.944V33.6033L185.736 36.1598L185.861 38.7163V41.6885H183.948ZM189.622 40.0673C190.329 40.0673 190.96 39.9079 191.514 39.5893C192.082 39.2706 192.525 38.8202 192.844 38.2383C193.177 37.6424 193.343 36.9566 193.343 36.1806C193.343 35.3908 193.177 34.7118 192.844 34.1437C192.525 33.5618 192.082 33.1114 191.514 32.7928C190.96 32.4741 190.329 32.3147 189.622 32.3147C188.93 32.3147 188.299 32.4741 187.731 32.7928C187.177 33.1114 186.733 33.5618 186.401 34.1437C186.082 34.7118 185.923 35.3908 185.923 36.1806C185.923 36.9566 186.082 37.6424 186.401 38.2383C186.733 38.8202 187.177 39.2706 187.731 39.5893C188.299 39.9079 188.93 40.0673 189.622 40.0673Z" fill="white"/>
</svg>
